<svg width="24" height="25" viewBox="0 0 24 25" fill="none" xmlns="http://www.w3.org/2000/svg">
<g id="gg:check-o">
<g id="Group">
<path id="Vector" d="M10.243 16.9714L6 12.7274L7.414 11.3134L10.243 14.1414L15.899 8.48438L17.314 9.89937L10.243 16.9694V16.9714Z" fill="#114F90"/>
<path id="Vector_2" fill-rule="evenodd" clip-rule="evenodd" d="M1 12.6582C1 6.5832 5.925 1.6582 12 1.6582C18.075 1.6582 23 6.5832 23 12.6582C23 18.7332 18.075 23.6582 12 23.6582C5.925 23.6582 1 18.7332 1 12.6582ZM12 21.6582C10.8181 21.6582 9.64778 21.4254 8.55585 20.9731C7.46392 20.5208 6.47177 19.8579 5.63604 19.0222C4.80031 18.1864 4.13738 17.1943 3.68508 16.1024C3.23279 15.0104 3 13.8401 3 12.6582C3 11.4763 3.23279 10.306 3.68508 9.21405C4.13738 8.12212 4.80031 7.12997 5.63604 6.29424C6.47177 5.45851 7.46392 4.79558 8.55585 4.34329C9.64778 3.891 10.8181 3.6582 12 3.6582C14.3869 3.6582 16.6761 4.60641 18.364 6.29424C20.0518 7.98207 21 10.2713 21 12.6582C21 15.0452 20.0518 17.3343 18.364 19.0222C16.6761 20.71 14.3869 21.6582 12 21.6582Z" fill="#114F90"/>
</g>
</g>
</svg>
